<?xml version="1.0" standalone="no"?>
<!DOCTYPE svg PUBLIC "-//W3C//DTD SVG 20010904//EN"
 "http://www.w3.org/TR/2001/REC-SVG-20010904/DTD/svg10.dtd">
<svg version="1.0" xmlns="http://www.w3.org/2000/svg"
 width="500.000000pt" height="320.000000pt" viewBox="45 15 370.000000 250.000000"
 preserveAspectRatio="xMidYMid meet">

<g transform="translate(0.000000,270.000000) scale(0.100000,-0.100000)"
fill="#9cc4e4" stroke="none">
<path d="M585 2576 c-111 -35 -199 -112 -249 -216 l-31 -65 0 -930 0 -930 31
-65 c38 -79 108 -150 189 -193 l60 -32 1830 0 1830 0 60 31 c81 43 151 115
189 194 l31 65 0 930 0 930 -31 65 c-40 83 -111 154 -194 194 l-65 31 -1805 2
c-1439 1 -1813 -1 -1845 -11z m988 -323 c-2 -104 -7 -521 -13 -928 -6 -407
-10 -804 -10 -883 l0 -144 -407 4 c-401 4 -409 4 -468 27 -82 33 -174 125
-206 206 l-24 60 0 775 0 775 23 57 c46 114 161 208 279 228 26 4 224 8 438 9
l390 1 -2 -187z m1470 25 c-6 -338 -23 -1709 -23 -1840 l0 -138 -657 0 -656 0
6 583 c4 320 10 801 14 1070 l6 487 656 0 657 0 -3 -162z m793 153 c-12 -19
-181 -156 -327 -266 l-153 -115 -33 -113 c-18 -61 -33 -113 -33 -114 0 -2 195
-3 433 -3 l434 0 46 159 c26 87 47 161 47 165 0 3 -58 6 -128 6 l-129 0 -15
-39 c-14 -36 -20 -40 -59 -46 -24 -3 -66 -5 -93 -3 l-50 3 150 120 c82 65 172
141 201 168 l52 49 35 -21 c55 -34 123 -116 148 -179 l23 -57 0 -775 0 -775
-24 -60 c-33 -82 -124 -173 -206 -206 -60 -24 -62 -24 -520 -27 l-460 -3 6
493 c4 271 10 673 13 893 3 220 6 480 6 578 l0 177 321 0 c181 0 318 -4 315
-9z"/>
<path d="M994 2016 c-34 -8 -80 -24 -104 -36 -141 -72 -278 -296 -344 -561
-75 -301 -58 -471 55 -573 74 -68 116 -81 259 -81 140 0 194 13 275 67 229
152 427 768 324 1009 -28 64 -103 131 -177 159 -73 28 -205 35 -288 16z m125
-237 c41 -14 51 -35 51 -104 0 -111 -88 -452 -147 -570 -48 -97 -103 -131
-162 -101 -61 32 -62 125 -1 361 59 227 123 373 179 408 31 20 39 20 80 6z"/>
<path d="M2437 1975 c-54 -60 -130 -103 -233 -135 l-72 -21 -22 -82 c-13 -45
-23 -86 -24 -91 -1 -4 36 -8 82 -7 l82 2 0 -29 c0 -29 -127 -502 -156 -579
-17 -48 -33 -56 -113 -57 l-55 -1 -28 -90 c-15 -50 -28 -91 -28 -93 0 -1 143
-1 317 0 l317 3 22 75 c33 110 34 107 -38 109 -68 2 -78 5 -78 27 0 8 63 236
140 507 77 271 140 498 140 505 0 9 -29 12 -102 11 l-103 -1 -48 -53z"/>
<path d="M3705 1280 c-71 -12 -169 -43 -210 -69 -27 -16 -34 -31 -64 -142 -19
-68 -36 -130 -39 -136 -3 -10 25 -13 121 -13 l125 0 12 38 c31 96 87 136 159
111 37 -13 51 -35 51 -79 0 -77 -64 -147 -158 -174 -32 -9 -68 -20 -82 -24
-22 -6 -28 -20 -51 -107 -14 -55 -24 -103 -22 -107 2 -5 22 -8 44 -8 111 0
158 -64 135 -187 l-8 -43 161 0 160 0 7 46 c9 61 0 154 -19 190 -18 35 -62 80
-99 104 l-28 17 56 23 c33 13 77 44 108 74 163 159 109 419 -99 475 -59 16
-191 21 -260 11z"/>
</g>
</svg>
